<svg width="24" height="24" viewBox="0 0 24 24" fill="none" xmlns="http://www.w3.org/2000/svg"><path d="M12 20.3281C10.9115 20.3281 9.88542 20.1198 8.92188 19.7031C7.96354 19.2865 7.11719 18.7109 6.38281 17.9766C5.64844 17.2422 5.07292 16.3958 4.65625 15.4375C4.23958 14.474 4.03125 13.4479 4.03125 12.3594C4.03125 11.2708 4.23958 10.2474 4.65625 9.28906C5.07292 8.32552 5.64583 7.47656 6.375 6.74219C7.10938 6.00781 7.95833 5.43229 8.92188 5.01562C9.88542 4.59896 10.9115 4.39062 12 4.39062C13.0885 4.39062 14.112 4.59896 15.0703 5.01562C16.0339 5.43229 16.8828 6.00781 17.6172 6.74219C18.3516 7.47656 18.9271 8.32552 19.3438 9.28906C19.7604 10.2474 19.9688 11.2708 19.9688 12.3594C19.9688 13.4479 19.7604 14.474 19.3438 15.4375C18.9271 16.3958 18.3516 17.2422 17.6172 17.9766C16.8828 18.7109 16.0339 19.2865 15.0703 19.7031C14.112 20.1198 13.0885 20.3281 12 20.3281ZM12 19C12.9219 19 13.7839 18.8281 14.5859 18.4844C15.3932 18.1406 16.099 17.6667 16.7031 17.0625C17.3125 16.4531 17.7865 15.7474 18.125 14.9453C18.4688 14.1432 18.6406 13.2812 18.6406 12.3594C18.6406 11.4375 18.4688 10.5755 18.125 9.77344C17.7812 8.97135 17.3047 8.26562 16.6953 7.65625C16.0911 7.04688 15.388 6.57292 14.5859 6.23438C13.7839 5.89062 12.9219 5.71875 12 5.71875V19Z" fill="var(--color-text-secondary)"/></svg>